External Loads File
version=1
nRows=93
nColumns=13
Range=5.000000e-03-10 seconds
endheader
time 	forceRightX 	forceRightY 	forceRightZ 	pointRightX 	pointRightY 	pointRightZ 	forceLeftX 	forceLeftY 	forceLeftZ 	pointLeftX 	pointLeftY 	pointLeftZ 		
5.005000 74.690783 85.472800 -0.000000 0.139832 0.224713 -0.141001 -243.352063 223.201399 -0.000000 0.419821 0.409587 -0.374885
5.010000 68.979130 88.546664 -0.000000 0.136562 0.233041 -0.141309 -267.463330 284.697978 -0.000000 0.421590 0.399976 -0.374864
5.015000 65.312793 93.102730 -0.000000 0.133954 0.241536 -0.141700 -292.973267 347.939347 -0.000000 0.423183 0.389911 -0.374745
5.020000 63.259287 98.059026 -0.000000 0.131999 0.250395 -0.142056 -319.595069 411.522289 -0.000000 0.424629 0.379584 -0.374331
5.025000 62.183222 102.450232 -0.000000 0.130842 0.259535 -0.142176 -347.078883 474.061926 -0.000000 0.425779 0.369004 -0.374054
5.030000 61.390638 105.544091 -0.000000 0.130362 0.268709 -0.142241 -374.861144 534.511392 -0.000000 0.426547 0.358101 -0.373915
5.035000 60.182556 106.959688 -0.000000 0.130451 0.277922 -0.142275 -402.220088 592.094163 -0.000000 0.426731 0.347046 -0.374044
5.040000 57.939859 106.638436 -0.000000 0.131443 0.287102 -0.142526 -428.499699 646.208238 -0.000000 0.426293 0.336009 -0.374057
5.045000 54.441019 104.616046 -0.000000 0.133058 0.296393 -0.142456 -451.639765 697.357627 -0.000000 0.425312 0.324937 -0.373615
5.050000 49.532728 101.126049 -0.000000 0.135379 0.305641 -0.142326 -469.966933 745.783171 -0.000000 0.423737 0.313703 -0.373426
5.055000 43.049076 96.534057 -0.000000 0.138439 0.314716 -0.142145 -482.948072 790.889096 -0.000000 0.421687 0.302677 -0.373060
5.060000 35.261727 91.052940 -0.000000 0.141987 0.324022 -0.142213 -487.717687 833.383091 -0.000000 0.418909 0.291840 -0.373604
5.065000 26.276003 84.977876 -0.000000 0.146060 0.333163 -0.141998 -483.738824 872.461853 -0.000000 0.415724 0.281106 -0.373594
5.070000 16.372562 78.486995 -0.000000 0.150598 0.342274 -0.141842 -470.203738 907.540409 -0.000000 0.411946 0.270690 -0.373795
5.075000 5.982425 71.668089 -0.000000 0.155601 0.351589 -0.141606 -445.736975 938.316214 -0.000000 0.407601 0.260581 -0.373709
5.080000 -4.575511 64.539146 -0.000000 0.161190 0.360776 -0.141583 -411.264698 963.323612 -0.000000 0.402759 0.250779 -0.373553
5.085000 -14.870066 56.971474 -0.000000 0.167128 0.370031 -0.141554 -366.844498 981.632541 -0.000000 0.397369 0.241250 -0.373384
5.090000 -24.580854 48.724817 -0.000000 0.173622 0.379409 -0.141340 -313.766208 991.946823 -0.000000 0.391550 0.232112 -0.373290
5.095000 -33.565217 39.460235 -0.000000 0.180290 0.388408 -0.141105 -255.273203 992.760741 -0.000000 0.385063 0.223245 -0.373258
5.100000 -41.727565 28.979769 -0.000000 0.187463 0.397381 -0.140833 -192.406384 983.815712 -0.000000 0.378104 0.214792 -0.373242
5.105000 -49.238711 17.257951 -0.000000 0.195092 0.406203 -0.140538 -128.628552 964.868109 -0.000000 0.370800 0.206993 -0.373238
5.110000 -56.316132 4.647014 -0.000000 0.202559 0.414990 -0.140798 -66.965901 936.629942 -0.000000 0.363205 0.199606 -0.373233
5.115000 -63.121705 -7.981055 -0.000000 0.210536 0.423232 -0.140859 -8.391839 900.571838 -0.000000 0.355236 0.192695 -0.373189
5.120000 -69.677143 -19.593861 -0.000000 0.218710 0.431004 -0.140961 44.974002 858.400241 -0.000000 0.346915 0.186398 -0.373271
5.125000 -75.817117 -29.082745 -0.000000 0.227273 0.438362 -0.140687 93.086291 812.052074 -0.000000 0.338262 0.180706 -0.373533
5.130000 -81.174281 -35.683834 -0.000000 0.235981 0.445246 -0.140660 134.878608 763.573754 -0.000000 0.329400 0.175396 -0.373682
5.135000 -85.298420 -38.895994 -0.000000 0.244868 0.451657 -0.140827 170.348809 714.852748 -0.000000 0.320259 0.170955 -0.373846
5.140000 -87.784798 -38.569767 -0.000000 0.253904 0.457504 -0.140837 200.039715 667.366814 -0.000000 0.310912 0.166884 -0.374139
5.145000 -88.327293 -35.019182 -0.000000 0.263097 0.462707 -0.140487 224.111492 622.274481 -0.000000 0.301502 0.163431 -0.374433
5.150000 -86.815424 -28.778831 -0.000000 0.272384 0.467210 -0.140375 243.391233 580.035711 -0.000000 0.291940 0.160521 -0.374732
5.155000 -83.245052 -20.659998 -0.000000 0.281567 0.471143 -0.140714 257.867626 541.015794 -0.000000 0.282443 0.158287 -0.375137
5.160000 -77.801144 -11.177792 -0.000000 0.291132 0.474455 -0.140860 269.374892 504.431138 -0.000000 0.272866 0.156757 -0.375536
5.165000 -70.667383 -1.051584 -0.000000 0.300325 0.477052 -0.140940 277.198801 470.461438 -0.000000 0.263256 0.155829 -0.375976
5.170000 -62.175653 9.514592 -0.000000 0.309381 0.479026 -0.140805 281.949918 438.495959 -0.000000 0.253836 0.155660 -0.376324
5.175000 -52.679489 20.666061 -0.000000 0.318330 0.480302 -0.140799 284.162992 407.846859 -0.000000 0.244487 0.156055 -0.376604
5.180000 -42.552591 32.804233 -0.000000 0.326681 0.480919 -0.140489 283.485688 378.487210 -0.000000 0.235254 0.157194 -0.376930
5.185000 -32.098250 46.789200 -0.000000 0.334824 0.480928 -0.140096 280.414642 349.981294 -0.000000 0.226296 0.159061 -0.377186
5.190000 -21.606165 63.660255 -0.000000 0.342573 0.480139 -0.139452 274.967186 322.469850 -0.000000 0.217637 0.161533 -0.377423
5.195000 -11.305312 84.548534 -0.000000 0.349812 0.478327 -0.138450 267.417199 296.161496 -0.000000 0.209330 0.164710 -0.377572
5.200000 -1.400157 110.488539 -0.000000 0.356606 0.475812 -0.137029 258.063219 271.484184 -0.000000 0.201355 0.168418 -0.377762
5.205000 7.926473 142.270132 -0.000000 0.362875 0.472691 -0.135487 247.333535 248.954851 -0.000000 0.193774 0.172815 -0.377867
5.210000 16.620005 180.154003 -0.000000 0.368567 0.468286 -0.133633 236.039475 228.838826 -0.000000 0.186567 0.177770 -0.377919
5.215000 24.274088 223.662699 -0.000000 0.373843 0.463192 -0.132186 224.703771 211.682839 -0.000000 0.179798 0.183249 -0.377960
5.220000 29.854809 271.684683 -0.000000 0.378597 0.458405 -0.131224 213.616005 198.108648 -0.000000 0.173385 0.189287 -0.377925
5.225000 33.159414 322.509105 -0.000000 0.383179 0.452686 -0.130338 203.746397 187.618858 -0.000000 0.167445 0.195663 -0.377856
5.230000 33.853301 374.118729 -0.000000 0.387568 0.445847 -0.129309 195.489338 179.861704 -0.000000 0.161910 0.202356 -0.377870
5.235000 31.578023 424.402686 -0.000000 0.391900 0.438254 -0.128304 188.971596 174.374496 -0.000000 0.156924 0.209556 -0.377844
5.240000 25.858482 471.410372 -0.000000 0.396084 0.430130 -0.127550 184.091754 170.578646 -0.000000 0.152467 0.217056 -0.377854
5.245000 16.842680 513.502750 -0.000000 0.400393 0.421774 -0.127649 180.720829 167.539334 -0.000000 0.148563 0.224879 -0.377904
5.250000 4.846003 549.502151 -0.000000 0.404458 0.413049 -0.127815 178.410934 164.325156 -0.000000 0.145330 0.233066 -0.377754
5.255000 -9.180576 578.721608 -0.000000 0.408369 0.403768 -0.128117 176.601765 159.986924 -0.000000 0.142857 0.241423 -0.377579
5.260000 -24.989305 600.994391 -0.000000 0.411800 0.394265 -0.128441 174.399150 154.109775 -0.000000 0.141087 0.249931 -0.377248
5.265000 -41.625267 616.677803 -0.000000 0.414710 0.384576 -0.128900 171.178933 146.412490 -0.000000 0.140044 0.258639 -0.377089
5.270000 -58.396079 626.562017 -0.000000 0.417273 0.374657 -0.129217 166.450159 136.989639 -0.000000 0.139634 0.267298 -0.377357
5.275000 -74.074846 631.766995 -0.000000 0.418991 0.364341 -0.129221 160.103117 125.961348 -0.000000 0.139776 0.276176 -0.377659
5.280000 -88.402538 633.465792 -0.000000 0.420500 0.353844 -0.129812 152.070099 113.741365 -0.000000 0.140492 0.285148 -0.377533
5.285000 -101.327918 632.861586 -0.000000 0.421168 0.343210 -0.130120 142.469771 100.743527 -0.000000 0.141665 0.294282 -0.377277
5.290000 -112.253893 631.282246 -0.000000 0.421470 0.332418 -0.129632 131.634740 87.228512 -0.000000 0.142948 0.303538 -0.376302
5.295000 -121.140223 629.885800 -0.000000 0.420990 0.321466 -0.129590 119.843790 73.551763 -0.000000 0.145075 0.312856 -0.376160
5.300000 -127.424218 629.662531 -0.000000 0.420000 0.310535 -0.129671 107.442304 59.843470 -0.000000 0.147636 0.322269 -0.375852
5.305000 -130.685500 631.232805 -0.000000 0.418322 0.299758 -0.129685 94.706300 46.126326 -0.000000 0.150703 0.331797 -0.375591
5.310000 -129.664917 635.044218 -0.000000 0.415941 0.288935 -0.129680 81.890376 32.243507 -0.000000 0.154219 0.341486 -0.375392
5.315000 -125.116976 640.824033 -0.000000 0.412815 0.278523 -0.130077 69.074319 18.324508 -0.000000 0.158170 0.351198 -0.375090
5.320000 -116.803510 648.288912 -0.000000 0.409187 0.268305 -0.130353 56.447297 4.341778 -0.000000 0.162498 0.360726 -0.374865
5.325000 -103.475257 657.163293 -0.000000 0.404939 0.258282 -0.130703 44.208729 -9.783518 -0.000000 0.167344 0.370445 -0.374777
5.330000 -85.172073 666.711094 -0.000000 0.400020 0.248395 -0.130948 32.498416 -23.993374 -0.000000 0.172687 0.380229 -0.374593
5.335000 -62.880727 675.863512 -0.000000 0.394576 0.238729 -0.131211 21.449713 -38.231384 -0.000000 0.178437 0.389894 -0.374431
5.340000 -37.402253 683.493844 -0.000000 0.388429 0.229539 -0.131274 11.152930 -52.492228 -0.000000 0.184442 0.399411 -0.374255
5.345000 -9.569295 688.502138 -0.000000 0.382075 0.220758 -0.131722 1.629179 -66.742914 -0.000000 0.190828 0.408791 -0.374048
5.350000 20.339423 689.899775 -0.000000 0.375246 0.212381 -0.132597 -7.236094 -80.877338 -0.000000 0.197523 0.418014 -0.373833
5.355000 51.448583 686.853937 -0.000000 0.368024 0.204348 -0.133068 -15.553914 -94.670378 -0.000000 0.204562 0.426963 -0.373488
5.360000 83.382461 678.793684 -0.000000 0.359981 0.196817 -0.133409 -23.513184 -107.773851 -0.000000 0.211896 0.435553 -0.373122
5.365000 114.313856 665.711007 -0.000000 0.351639 0.189887 -0.133601 -31.104856 -119.844914 -0.000000 0.219628 0.443755 -0.372691
5.370000 143.345812 648.010262 -0.000000 0.342972 0.183358 -0.133612 -38.462410 -130.553459 -0.000000 0.227601 0.451604 -0.372228
5.375000 169.281661 626.590311 -0.000000 0.334040 0.177532 -0.133834 -45.619564 -139.616852 -0.000000 0.235911 0.458791 -0.371920
5.380000 191.132673 602.694733 -0.000000 0.325283 0.172215 -0.134304 -52.507059 -146.786641 -0.000000 0.244571 0.465297 -0.371534
5.385000 209.711054 577.183110 -0.000000 0.316065 0.167578 -0.134495 -59.335463 -151.729597 -0.000000 0.253381 0.471279 -0.371317
5.390000 225.183593 551.019324 -0.000000 0.306499 0.163432 -0.134492 -66.049367 -154.268414 -0.000000 0.262443 0.476621 -0.371217
5.395000 236.527097 525.573100 -0.000000 0.297143 0.159969 -0.134647 -72.120307 -154.589687 -0.000000 0.271504 0.481108 -0.370685
5.400000 245.327361 500.898105 -0.000000 0.287764 0.156950 -0.135162 -77.706388 -152.766608 -0.000000 0.280819 0.484917 -0.370121
5.405000 252.361973 476.934804 -0.000000 0.278098 0.154605 -0.135104 -82.790415 -149.044072 -0.000000 0.290276 0.487938 -0.369633
5.410000 257.311029 453.789429 -0.000000 0.268479 0.153032 -0.135230 -87.082721 -143.886137 -0.000000 0.299641 0.490354 -0.369409
5.415000 260.805532 430.704883 -0.000000 0.258884 0.151955 -0.135521 -90.683217 -137.574566 -0.000000 0.309141 0.491951 -0.369057
5.420000 262.666209 407.117564 -0.000000 0.249394 0.151621 -0.135780 -93.510985 -130.446322 -0.000000 0.318672 0.492816 -0.368907
5.425000 262.405698 382.645802 -0.000000 0.239917 0.151955 -0.136056 -95.441543 -122.785827 -0.000000 0.327856 0.493087 -0.368685
5.430000 259.930492 356.797300 -0.000000 0.230634 0.152846 -0.136332 -96.564117 -114.640087 -0.000000 0.336904 0.492410 -0.368886
5.435000 254.630956 329.728634 -0.000000 0.221645 0.154311 -0.136684 -96.909016 -106.052710 -0.000000 0.345547 0.491117 -0.368846
5.440000 246.565367 301.549660 -0.000000 0.212975 0.156648 -0.137034 -96.815214 -96.791171 -0.000000 0.353761 0.489306 -0.368907
5.445000 235.929753 272.726698 -0.000000 0.204685 0.159353 -0.137314 -96.750205 -86.507889 -0.000000 0.361516 0.486522 -0.369083
5.450000 223.292050 243.781582 -0.000000 0.196804 0.162801 -0.137808 -97.365606 -74.688884 -0.000000 0.368923 0.483107 -0.369266
5.455000 208.997001 215.607027 -0.000000 0.189289 0.166624 -0.138144 -99.281626 -60.884896 -0.000000 0.375555 0.478964 -0.369861
5.460000 194.052420 188.423590 -0.000000 0.182112 0.171200 -0.138450 -103.333046 -44.303631 -0.000000 0.381721 0.474015 -0.370534
5.465000 178.800138 162.884361 -0.000000 0.175325 0.176359 -0.138752 -110.128683 -24.306368 -0.000000 0.387205 0.468312 -0.370954
